<svg width="771" height="427" viewBox="0 0 771 427" fill="none" xmlns="http://www.w3.org/2000/svg">
<path d="M122.09 84.7529C130.877 75.9661 145.124 75.9661 153.91 84.7529C162.697 93.5397 162.697 107.786 153.91 116.573L54.3205 216.163L153.91 315.753C162.697 324.54 162.697 338.786 153.91 347.573C145.124 356.36 130.877 356.36 122.09 347.573L6.59006 232.073C-2.19671 223.286 -2.19666 209.04 6.59006 200.253L122.09 84.7529ZM616.59 78.5898C625.377 69.8031 639.624 69.8031 648.41 78.5898L763.91 194.09C772.697 202.877 772.697 217.123 763.91 225.91L648.41 341.41C639.624 350.197 625.377 350.197 616.59 341.41C607.803 332.623 607.803 318.377 616.59 309.59L716.18 210L616.59 110.41C607.803 101.623 607.803 87.3766 616.59 78.5898Z" fill="black"/>
<path d="M385 0C395.617 0 406.043 2.79408 415.238 8.0957L415.239 8.09473L548.628 84.502C548.657 84.5186 548.686 84.536 548.715 84.5527C557.922 89.8814 565.563 97.5391 570.876 106.753C576.189 115.967 578.989 126.415 579 137.05V289.911C578.989 300.546 576.189 310.994 570.876 320.207C565.563 329.421 557.922 337.079 548.715 342.408C548.686 342.425 548.657 342.441 548.628 342.458L415.239 418.866L415.238 418.865C406.545 423.877 396.752 426.646 386.737 426.934C386.164 426.977 385.585 427 385 427C384.415 427 383.835 426.977 383.262 426.934C373.247 426.646 363.454 423.877 354.761 418.865V418.866L221.372 342.458C221.343 342.441 221.314 342.425 221.285 342.408C212.078 337.079 204.437 329.421 199.124 320.207C193.811 310.994 191.011 300.546 191 289.911V137.05C191.011 126.415 193.811 115.967 199.124 106.753C204.437 97.5391 212.078 89.8814 221.285 84.5527L221.372 84.502L354.761 8.09473V8.0957C363.956 2.7938 374.383 0 385 0ZM236 289.865L236.009 290.383C236.096 292.967 236.817 295.491 238.107 297.729C239.483 300.115 241.457 302.089 243.825 303.46L362.5 371.438V226.484L236 153.606V289.865ZM407.5 226.484V371.438L526.174 303.46C528.542 302.089 530.517 300.115 531.893 297.729C533.265 295.348 533.993 292.645 534 289.889V153.606L407.5 226.484ZM385 45C382.27 45 379.585 45.7199 377.215 47.0918C377.186 47.1085 377.157 47.126 377.128 47.1426L258.899 114.865L385 187.514L511.1 114.865L392.872 47.1426C392.843 47.126 392.814 47.1085 392.785 47.0918C390.415 45.7199 387.73 45 385 45Z" fill="black"/>
</svg>
